{"title":"Piranha.2010.BRRIP.720P.H264-ZEKTORM","uid":6066156,"size":2097383399,"categoryP":"video","categoryS":"hd___movies","magnet":"?xt=urn:btih:b8c697ce223cc2336ee8ef98263ccf18dda82f73&amp;dn=Piranha.2010.BRRIP.720P.H264-ZEKTORM&amp;tr=udp%3A%2F%2Ftracker.openbittorrent.com%3A80&amp;tr=udp%3A%2F%2Fopen.demonii.com%3A1337&amp;tr=udp%3A%2F%2Ftracker.coppersurfer.tk%3A6969&amp;tr=udp%3A%2F%2Fexodus.desync.com%3A6969","seeders":0,"leechers":0,"uploader":"blowley","files":4,"time":1293363870,"description":"Title                            : Piranha\nYear                             : 2010\nGenre                            : Comedy | Horror | Thriller\niMDB URL                         : http://www.imdb.com/title/tt0464154/\n\nComplete name                    : Piranha.2010.BRRIP.720P.H264-ZEKTORM.mp4\nFormat                           : MPEG-4\nFormat profile                   : Base Media\nCodec ID                         : isom\nFile size                        : 1.95 GiB\nDuration                         : 1h 28mn\nOverall bit rate                 : 3165 Kbps\nSubtitles                        : English (Format: srt)\n\nVideo\nID                               : 1\nFormat                           : AVC\nFormat/Info                      : Advanced Video Codec\nFormat profile                   : &lt;a class=&quot;__cf_email__&quot; href=&quot;/cdn-cgi/l/email-protection&quot; data-cfemail=&quot;7f371618173f334b514f&quot;&gt;[email&amp;#160;protected]&lt;/a&gt;&lt;script cf-hash='f9e31' type=&quot;text/javascript&quot;&gt;\n/* &lt;![CDATA[ */!function(){try{var t=&quot;currentScript&quot;in document?document.currentScript:function(){for(var t=document.getElementsByTagName(&quot;script&quot;),e=t.length;e--;)if(t[e].getAttribute(&quot;cf-hash&quot;))return t[e]}();if(t&amp;&amp;t.previousSibling){var e,r,n,i,c=t.previousSibling,a=c.getAttribute(&quot;data-cfemail&quot;);if(a){for(e=&quot;&quot;,r=parseInt(a.substr(0,2),16),n=2;a.length-n;n+=2)i=parseInt(a.substr(n,2),16)^r,e+=String.fromCharCode(i);e=document.createTextNode(e),c.parentNode.replaceChild(e,c)}}}catch(u){}}();/* ]]&gt; */&lt;/script&gt;\nFormat settings, CABAC           : Yes\nFormat settings, ReFrames        : 5 frames\nCodec ID                         : avc1\nCodec ID/Info                    : Advanced Video Coding\nDuration                         : 1h 28mn\nBit rate mode                    : Variable\nBit rate                         : 2720 Kbps\nWidth                            : 1280 pixels\nHeight                           : 528 pixels\nDisplay aspect ratio             : 2.424\nFrame rate mode                  : Constant\nFrame rate                       : 23.976 fps\nResolution                       : 24 bits\nColorimetry                      : 4:2:0\nScan type                        : Progressive\nBits/(Pixel*Frame)               : 0.168\nStream size                      : 1.68 GiB (86%)\nTitle                            : Video\nWriting library                  : x264\n\nAudio\nID                               : 2\nFormat                           : AAC\nFormat/Info                      : Advanced Audio Codec\nFormat version                   : Version 4\nFormat profile                   : LC\nFormat settings, SBR             : No\nCodec ID                         : 40\nDuration                         : 1h 28mn\nBit rate mode                    : Variable\nBit rate                         : 441 Kbps\nMaximum bit rate                 : 527 Kbps\nChannel(s)                       : 6 channels\nChannel positions                : Front: L C R, Rear: L R, LFE\nSampling rate                    : 48.0 KHz\nResolution                       : 16 bits\nStream size                      : 279 MiB (14%)\nLanguage                         : English\n\n\n\nScreenshots:\n &lt;a href=&quot;\nhttp://img573.imageshack.us/img573/4997/snapp1.png&quot; rel=&quot;nofollow&quot; target=&quot;_NEW&quot;&gt;\nhttp://img573.imageshack.us/img573/4997/snapp1.png&lt;/a&gt;\n &lt;a href=&quot;\nhttp://img31.imageshack.us/img31/8869/snapp2.png&quot; rel=&quot;nofollow&quot; target=&quot;_NEW&quot;&gt;\nhttp://img31.imageshack.us/img31/8869/snapp2.png&lt;/a&gt;\n &lt;a href=&quot;\nhttp://img233.imageshack.us/img233/641/snapp3.png&quot; rel=&quot;nofollow&quot; target=&quot;_NEW&quot;&gt;\nhttp://img233.imageshack.us/img233/641/snapp3.png&lt;/a&gt;\n &lt;a href=&quot;\nhttp://img152.imageshack.us/img152/1019/snapp4.png&quot; rel=&quot;nofollow&quot; target=&quot;_NEW&quot;&gt;\nhttp://img152.imageshack.us/img152/1019/snapp4.png&lt;/a&gt;\n","torrent":{"xt":"urn:btih:b8c697ce223cc2336ee8ef98263ccf18dda82f73","amp;dn":"Piranha.2010.BRRIP.720P.H264-ZEKTORM","amp;tr":["udp%3A%2F%2Ftracker.openbittorrent.com%3A80","udp%3A%2F%2Fopen.demonii.com%3A1337","udp%3A%2F%2Ftracker.coppersurfer.tk%3A6969","udp%3A%2F%2Fexodus.desync.com%3A6969"],"infoHash":"b8c697ce223cc2336ee8ef98263ccf18dda82f73","infoHashBuffer":{"type":"Buffer","data":[184,198,151,206,34,60,194,51,110,232,239,152,38,60,207,24,221,168,47,115]},"announce":[],"urlList":[]}}